HIERARCHY
ROOT Hip
{
	OFFSET -0.063275 -0.105515 0.257189
	CHANNELS 6 Xposition Yposition Zposition Xrotation Yrotation Zrotation
	JOINT LowerSpine
	{
		OFFSET -0.010109 0.155079 0.259446
		CHANNELS 6 Xposition Yposition Zposition Xrotation Yrotation Zrotation
		JOINT MiddleSpine
		{
			OFFSET -0.009529 -0.010798 0.236979
			CHANNELS 3 Xrotation Yrotation Zrotation
			JOINT Chest
			{
				OFFSET -0.011646 0.059224 0.293129
				CHANNELS 3 Xrotation Yrotation Zrotation
				JOINT Neck
				{
					OFFSET -0.026483 0.013363 0.660729
					CHANNELS 6 Xposition Yposition Zposition Xrotation Yrotation Zrotation
					JOINT Head
					{
						OFFSET -0.015175 -0.101015 0.373276
						CHANNELS 3 Xrotation Yrotation Zrotation
						End Site
						{
							OFFSET -0.002153 -0.001521 0.053588
						}
					}
				}
				JOINT LClavicle
				{
					OFFSET 0.034063 -0.195939 0.640341
					CHANNELS 6 Xposition Yposition Zposition Xrotation Yrotation Zrotation
					JOINT LShoulder
					{
						OFFSET 0.347371 0.147571 0.105324
						CHANNELS 3 Xrotation Yrotation Zrotation
						JOINT LForearm
						{
							OFFSET 0.827965 0.005572 0.030268
							CHANNELS 3 Xrotation Yrotation Zrotation
							JOINT LHand
							{
								OFFSET 0.690515 0.002807 0.029704
								CHANNELS 3 Xrotation Yrotation Zrotation
								JOINT LFinger1
								{
									OFFSET 0.266564 -0.074882 0.034252
									CHANNELS 6 Xposition Yposition Zposition Xrotation Yrotation Zrotation
									JOINT LFinger11
									{
										OFFSET 0.101058 -0.017884 -0.020372
										CHANNELS 3 Xrotation Yrotation Zrotation
										JOINT LFinger12
										{
											OFFSET 0.068991 -0.012214 -0.013910
											CHANNELS 3 Xrotation Yrotation Zrotation
											End Site
											{
												OFFSET 0.051352 -0.008362 -0.013103
											}
										}
									}
								}
								JOINT LFinger2
								{
									OFFSET 0.270550 -0.006962 0.037940
									CHANNELS 6 Xposition Yposition Zposition Xrotation Yrotation Zrotation
									JOINT LFinger21
									{
										OFFSET 0.123774 0.000492 0.005309
										CHANNELS 3 Xrotation Yrotation Zrotation
										JOINT LFinger22
										{
											OFFSET 0.068607 0.000285 0.002962
											CHANNELS 3 Xrotation Yrotation Zrotation
											End Site
											{
												OFFSET 0.053627 -0.000182 -0.001632
											}
										}
									}
								}
								JOINT LFinger3
								{
									OFFSET 0.256841 0.060484 0.028282
									CHANNELS 6 Xposition Yposition Zposition Xrotation Yrotation Zrotation
									JOINT LFinger31
									{
										OFFSET 0.112566 0.006813 -0.001191
										CHANNELS 3 Xrotation Yrotation Zrotation
										JOINT LFinger32
										{
											OFFSET 0.064144 0.003895 -0.000658
											CHANNELS 3 Xrotation Yrotation Zrotation
											End Site
											{
												OFFSET 0.053417 0.002401 -0.004406
											}
										}
									}
								}
								JOINT LFinger4
								{
									OFFSET 0.239835 0.104779 -0.008719
									CHANNELS 6 Xposition Yposition Zposition Xrotation Yrotation Zrotation
									JOINT LFinger41
									{
										OFFSET 0.069706 0.018932 -0.011663
										CHANNELS 3 Xrotation Yrotation Zrotation
										JOINT LFinger42
										{
											OFFSET 0.051116 0.013892 -0.008538
											CHANNELS 3 Xrotation Yrotation Zrotation
											End Site
											{
												OFFSET 0.051052 0.011472 -0.011859
											}
										}
									}
								}
								JOINT LFinger0
								{
									OFFSET 0.056965 -0.042178 -0.039627
									CHANNELS 6 Xposition Yposition Zposition Xrotation Yrotation Zrotation
									JOINT LFinger01
									{
										OFFSET 0.104289 -0.078034 -0.029607
										CHANNELS 3 Xrotation Yrotation Zrotation
										JOINT LFinger02
										{
											OFFSET 0.068756 -0.049112 -0.021497
											CHANNELS 3 Xrotation Yrotation Zrotation
											End Site
											{
												OFFSET 0.043080 -0.029263 -0.012899
											}
										}
									}
								}
							}
						}
					}
				}
				JOINT RClavicle
				{
					OFFSET -0.086011 -0.195706 0.635523
					CHANNELS 6 Xposition Yposition Zposition Xrotation Yrotation Zrotation
					JOINT RShoulder
					{
						OFFSET -0.354181 0.148955 0.077193
						CHANNELS 3 Xrotation Yrotation Zrotation
						JOINT RForearm
						{
							OFFSET -0.827701 0.008778 -0.036160
							CHANNELS 3 Xrotation Yrotation Zrotation
							JOINT RHand
							{
								OFFSET -0.690659 0.005482 -0.025711
								CHANNELS 3 Xrotation Yrotation Zrotation
								JOINT RFinger1
								{
									OFFSET -0.268742 -0.073845 0.012777
									CHANNELS 6 Xposition Yposition Zposition Xrotation Yrotation Zrotation
									JOINT RFinger11
									{
										OFFSET -0.099170 -0.017497 -0.028405
										CHANNELS 3 Xrotation Yrotation Zrotation
										JOINT RFinger12
										{
											OFFSET -0.067702 -0.011949 -0.019400
											CHANNELS 3 Xrotation Yrotation Zrotation
											End Site
											{
												OFFSET -0.050169 -0.008165 -0.017177
											}
										}
									}
								}
								JOINT RFinger2
								{
									OFFSET -0.272744 -0.005913 0.016142
									CHANNELS 6 Xposition Yposition Zposition Xrotation Yrotation Zrotation
									JOINT RFinger21
									{
										OFFSET -0.123799 0.000971 -0.004621
										CHANNELS 3 Xrotation Yrotation Zrotation
										JOINT RFinger22
										{
											OFFSET -0.068622 0.000553 -0.002544
											CHANNELS 3 Xrotation Yrotation Zrotation
											End Site
											{
												OFFSET -0.053325 0.000025 -0.005923
											}
										}
									}
								}
								JOINT RFinger3
								{
									OFFSET -0.258045 0.061481 0.007627
									CHANNELS 6 Xposition Yposition Zposition Xrotation Yrotation Zrotation
									JOINT RFinger31
									{
										OFFSET -0.112082 0.007248 -0.010204
										CHANNELS 3 Xrotation Yrotation Zrotation
										JOINT RFinger32
										{
											OFFSET -0.063872 0.004143 -0.005794
											CHANNELS 3 Xrotation Yrotation Zrotation
											End Site
											{
												OFFSET -0.052883 0.002607 -0.008671
											}
										}
									}
								}
								JOINT RFinger4
								{
									OFFSET -0.237958 0.105704 -0.027888
									CHANNELS 6 Xposition Yposition Zposition Xrotation Yrotation Zrotation
									JOINT RFinger41
									{
										OFFSET -0.068474 0.019200 -0.017207
										CHANNELS 3 Xrotation Yrotation Zrotation
										JOINT RFinger42
										{
											OFFSET -0.050213 0.014088 -0.012600
											CHANNELS 3 Xrotation Yrotation Zrotation
											End Site
											{
												OFFSET -0.049894 0.011668 -0.015909
											}
										}
									}
								}
								JOINT RFinger0
								{
									OFFSET -0.053770 -0.041961 -0.044067
									CHANNELS 6 Xposition Yposition Zposition Xrotation Yrotation Zrotation
									JOINT RFinger01
									{
										OFFSET -0.101882 -0.077637 -0.037884
										CHANNELS 3 Xrotation Yrotation Zrotation
										JOINT RFinger02
										{
											OFFSET -0.067002 -0.048849 -0.026942
											CHANNELS 3 Xrotation Yrotation Zrotation
											End Site
											{
												OFFSET -0.042021 -0.029098 -0.016314
											}
										}
									}
								}
							}
						}
					}
				}
			}
		}
	}
	JOINT RThigh
	{
		OFFSET -0.311672 0.025976 0.105021
		CHANNELS 6 Xposition Yposition Zposition Xrotation Yrotation Zrotation
		JOINT RShin
		{
			OFFSET 0.026242 -0.001762 -1.209087
			CHANNELS 3 Xrotation Yrotation Zrotation
			JOINT RFoot
			{
				OFFSET 0.047595 -0.001772 -1.186376
				CHANNELS 3 Xrotation Yrotation Zrotation
				JOINT RToe
				{
					OFFSET 0.004687 -0.273082 -0.130006
					CHANNELS 3 Xrotation Yrotation Zrotation
					End Site
					{
						OFFSET -0.000107 -0.053652 0.000076
					}
				}
			}
		}
	}
	JOINT LThigh
	{
		OFFSET 0.302351 0.024786 0.129664
		CHANNELS 6 Xposition Yposition Zposition Xrotation Yrotation Zrotation
		JOINT LShin
		{
			OFFSET 0.070699 -0.001848 -1.207312
			CHANNELS 3 Xrotation Yrotation Zrotation
			JOINT LFoot
			{
				OFFSET 0.047595 -0.001772 -1.186376
				CHANNELS 3 Xrotation Yrotation Zrotation
				JOINT LToe
				{
					OFFSET 0.004687 -0.273085 -0.130008
					CHANNELS 3 Xrotation Yrotation Zrotation
					End Site
					{
						OFFSET -0.000107 -0.053652 0.000076
					}
				}
			}
		}
	}
}
MOTION
Frames: 4
Frame Time: 0.041667
-1.975782 -0.077274 2.370232 -8.733188 -16.179986 -154.844637 -0.010109 0.155079 0.259446 0.000005 -0.000026 -0.000002 -1.851465 -2.220452 -6.259279 -7.060770 -6.516673 -21.191080 -0.026483 0.013363 0.660729 -8.983705 -8.702434 -3.465911 -0.190001 1.146745 0.025927 0.034063 -0.195939 0.640341 -0.428429 2.642845 -0.061149 44.355843 -4.109641 -21.205062 1.275101 -4.532997 -145.555361 -0.000003 -0.000001 -0.000012 0.266564 -0.074881 0.034252 -0.000002 0.000016 -0.000009 0.000005 -0.000007 0.000018 -0.000002 -0.000008 -0.000032 0.270549 -0.006961 0.037940 -0.000011 0.000018 -0.000009 -0.000003 0.000002 -0.000016 -0.000003 0.000007 -0.000009 0.256841 0.060485 0.028283 -0.000007 0.000015 -0.000008 0.000002 0.000011 0.000005 0.000002 -0.000006 0.000011 0.239835 0.104780 -0.008718 -0.000000 0.000009 -0.000009 -0.000017 -0.000001 -0.000010 -0.000003 -0.000003 0.000009 0.056965 -0.042177 -0.039626 -0.000014 0.000015 -0.000020 -0.000004 -0.000007 0.000021 -0.000000 -0.000006 -0.000026 -0.086010 -0.195706 0.635524 -0.897284 -1.945529 -2.354525 21.431549 -3.288198 0.679806 -0.015318 0.000494 0.381819 -0.000001 0.000000 0.000002 -0.268742 -0.073845 0.012777 0.000001 0.000001 0.000015 -0.000002 -0.000003 0.000001 -0.000000 -0.000004 0.000002 -0.272745 -0.005913 0.016142 -0.000001 0.000017 0.000009 0.000000 -0.000001 -0.000003 -0.000004 0.000002 0.000009 -0.258045 0.061481 0.007627 -0.000001 0.000013 0.000008 -0.000000 -0.000003 -0.000002 -0.000004 0.000016 -0.000005 -0.237959 0.105704 -0.027889 -0.000006 0.000011 0.000014 -0.000001 -0.000001 0.000014 0.000010 -0.000004 -0.000013 -0.053771 -0.041961 -0.044067 0.000005 0.000019 -0.000000 -0.000017 -0.000006 -0.000005 0.000006 -0.000011 0.000009 -0.277030 -0.021734 -0.073028 -5.331147 11.613130 3.196920 12.633055 0.031379 0.505442 0.281287 0.182991 -0.376925 -12.210164 0.075393 -0.482635 0.290323 0.041356 0.191461 -9.289859 -5.819919 6.527738 -0.846554 0.001877 -0.033952 -2.449223 -0.812754 1.535997 -0.000001 0.000014 -0.000000 
-1.975782 -0.077274 2.370232 -8.733188 -16.179986 -154.844637 -0.010109 0.155079 0.259446 0.000005 -0.000026 -0.000002 -1.851465 -2.220452 -6.259279 -7.060770 -6.516673 -21.191080 -0.026483 0.013363 0.660729 -8.983705 -8.702434 -3.465911 -0.190001 1.146745 0.025927 0.034063 -0.195939 0.640341 -0.428429 2.642845 -0.061149 44.355843 -4.109641 -21.205062 1.275101 -4.532997 -145.555361 -0.000003 -0.000001 -0.000012 0.266564 -0.074881 0.034252 -0.000002 0.000016 -0.000009 0.000005 -0.000007 0.000018 -0.000002 -0.000008 -0.000032 0.270549 -0.006961 0.037940 -0.000011 0.000018 -0.000009 -0.000003 0.000002 -0.000016 -0.000003 0.000007 -0.000009 0.256841 0.060485 0.028283 -0.000007 0.000015 -0.000008 0.000002 0.000011 0.000005 0.000002 -0.000006 0.000011 0.239835 0.104780 -0.008718 -0.000000 0.000009 -0.000009 -0.000017 -0.000001 -0.000010 -0.000003 -0.000003 0.000009 0.056965 -0.042177 -0.039626 -0.000014 0.000015 -0.000020 -0.000004 -0.000007 0.000021 -0.000000 -0.000006 -0.000026 -0.086010 -0.195706 0.635524 -0.897284 -1.945529 -2.354525 21.431549 -3.288198 0.679806 -0.015318 0.000494 0.381819 -0.000001 0.000000 0.000002 -0.268742 -0.073845 0.012777 0.000001 0.000001 0.000015 -0.000002 -0.000003 0.000001 -0.000000 -0.000004 0.000002 -0.272745 -0.005913 0.016142 -0.000001 0.000017 0.000009 0.000000 -0.000001 -0.000003 -0.000004 0.000002 0.000009 -0.258045 0.061481 0.007627 -0.000001 0.000013 0.000008 -0.000000 -0.000003 -0.000002 -0.000004 0.000016 -0.000005 -0.237959 0.105704 -0.027889 -0.000006 0.000011 0.000014 -0.000001 -0.000001 0.000014 0.000010 -0.000004 -0.000013 -0.053771 -0.041961 -0.044067 0.000005 0.000019 -0.000000 -0.000017 -0.000006 -0.000005 0.000006 -0.000011 0.000009 -0.277030 -0.021734 -0.073028 -5.331147 11.613130 3.196920 12.633055 0.031379 0.505442 0.281287 0.182991 -0.376925 -12.210164 0.075393 -0.482635 0.290323 0.041356 0.191461 -9.289859 -5.819919 6.527738 -0.846554 0.001877 -0.033952 -2.449223 -0.812754 1.535997 -0.000001 0.000014 -0.000000 
-1.975896 -0.082430 2.369204 -9.263321 -16.704003 -156.269974 -0.010109 0.155079 0.259446 0.000003 -0.000025 -0.000003 -1.994291 -2.449238 -5.881620 -7.578166 -7.275099 -19.983001 -0.026483 0.013363 0.660729 -9.019555 -7.587936 -3.081145 -0.289422 0.609236 0.005935 0.034063 -0.195939 0.640341 -0.588245 2.635930 -0.082397 45.292303 -4.207157 -21.856426 1.252278 -4.543450 -146.129097 -0.000011 -0.000001 -0.000012 0.266564 -0.074881 0.034252 -0.000001 0.000015 -0.000011 0.000003 -0.000005 0.000018 0.000003 -0.000010 -0.000032 0.270549 -0.006962 0.037940 -0.000009 0.000016 -0.000009 -0.000002 0.000003 -0.000014 -0.000007 0.000007 -0.000008 0.256840 0.060485 0.028282 -0.000007 0.000014 -0.000009 0.000001 0.000010 0.000006 -0.000003 -0.000007 0.000011 0.239835 0.104779 -0.008719 0.000001 0.000008 -0.000009 -0.000016 0.000000 -0.000009 -0.000003 -0.000006 0.000006 0.056964 -0.042178 -0.039627 -0.000009 0.000019 -0.000023 -0.000006 -0.000003 0.000017 -0.000001 -0.000007 -0.000024 -0.086010 -0.195706 0.635524 -1.265694 -2.156214 -3.313604 20.460375 -1.890836 1.317047 -0.012656 0.000302 0.310012 -0.000002 0.000001 0.000001 -0.268742 -0.073845 0.012777 0.000005 0.000001 0.000013 -0.000001 -0.000003 -0.000001 0.000002 -0.000004 0.000004 -0.272745 -0.005913 0.016142 0.000005 0.000018 0.000009 -0.000001 -0.000001 -0.000004 -0.000003 0.000002 0.000009 -0.258046 0.061481 0.007627 0.000002 0.000013 0.000008 -0.000000 -0.000004 -0.000003 -0.000001 0.000015 -0.000004 -0.237959 0.105704 -0.027889 -0.000001 0.000010 0.000014 -0.000000 -0.000001 0.000016 0.000006 -0.000004 -0.000012 -0.053771 -0.041961 -0.044066 0.000005 0.000018 0.000005 -0.000023 -0.000009 -0.000002 -0.000001 -0.000014 0.000012 -0.277145 -0.021547 -0.072644 -6.897801 11.126393 3.857054 13.932842 0.040913 0.556778 0.540494 0.053709 -0.093826 -12.968318 0.083440 -0.511939 0.290326 0.041351 0.191436 -9.857431 -6.229892 6.655046 -0.595974 0.001266 -0.023898 -2.870682 -0.904726 1.682308 0.000002 0.000013 -0.000003 
-1.975769 -0.085217 2.368834 -9.453497 -16.853120 -156.768237 -0.010109 0.155079 0.259445 0.000007 -0.000026 -0.000002 -2.025206 -2.511731 -5.760896 -7.683138 -7.508862 -19.564804 -0.026483 0.013363 0.660729 -9.063273 -7.216330 -2.953593 -0.357812 0.456635 -0.001380 0.034063 -0.195939 0.640341 -0.630331 2.601304 -0.088103 45.400636 -4.150677 -22.002508 1.244312 -4.547562 -146.331311 -0.000007 -0.000001 -0.000011 0.266564 -0.074882 0.034252 0.000002 0.000013 -0.000011 0.000001 -0.000005 0.000019 0.000009 -0.000009 -0.000032 0.270549 -0.006962 0.037940 -0.000003 0.000017 -0.000009 -0.000003 0.000002 -0.000014 -0.000003 0.000006 -0.000010 0.256841 0.060484 0.028283 -0.000001 0.000014 -0.000008 -0.000002 0.000010 0.000005 -0.000004 -0.000007 0.000011 0.239835 0.104779 -0.008718 -0.000000 0.000010 -0.000008 -0.000021 -0.000001 -0.000009 -0.000000 -0.000005 0.000004 0.056965 -0.042178 -0.039626 -0.000002 0.000015 -0.000020 -0.000008 -0.000005 0.000019 -0.000002 -0.000008 -0.000026 -0.086010 -0.195706 0.635524 -1.421371 -2.267628 -3.713845 20.111839 -1.401560 1.769764 -0.001624 -0.000929 0.012753 -0.000000 0.000000 0.000001 -0.268742 -0.073845 0.012777 0.000006 0.000002 0.000013 0.000000 -0.000000 0.000002 0.000002 -0.000004 0.000004 -0.272745 -0.005913 0.016142 -0.000004 0.000017 0.000009 -0.000001 -0.000001 -0.000003 -0.000000 0.000002 0.000008 -0.258046 0.061481 0.007626 -0.000002 0.000013 0.000008 0.000002 -0.000003 -0.000002 -0.000001 0.000015 -0.000005 -0.237959 0.105704 -0.027889 -0.000001 0.000009 0.000012 -0.000001 -0.000003 0.000015 0.000006 -0.000004 -0.000012 -0.053771 -0.041961 -0.044066 0.000005 0.000020 0.000003 -0.000024 -0.000010 -0.000000 -0.000001 -0.000013 0.000010 -0.277336 -0.021235 -0.072001 -7.574282 10.970609 4.114650 14.666250 0.046804 0.585641 0.400924 -0.075108 0.177462 -13.174074 0.085691 -0.519875 0.290330 0.041344 0.191396 -10.289466 -6.390134 6.687155 -0.059423 0.000103 -0.002381 -3.339603 -0.796325 1.439201 -0.000001 0.000012 0.000003 
